# xmcd
#
# Track frame offsets: 
#        150
#        43820
#        82470
#        113240
#        126075
#        138900
#        141322
#        210462
#        237217
#
# Disc length: 3452 seconds
#
# Revision: 9
# Processed by: cddbd v1.5.2PL0 Copyright (c) Steve Scherf et al.
# Submitted via: ExactAudioCopy v1.3
#
DISCID=860d7a09
DTITLE=Han-Na Chang and Giuseppe Sinopoli and Sachsische Staatskapelle Dre
DTITLE=sden - Haydn Cello Concertos etc
DYEAR=1997
DGENRE=Classical
TTITLE0=Haydn Cello Concerto No 1 in C Hob VIIb 1 - 1 Moderato
TTITLE1=Haydn Cello Concerto No 1 in C Hob VIIb 1 - 2 Adagio
TTITLE2=Haydn Cello Concerto No 1 in C Hob VIIb 1 - 3 Finale(Allegro m
TTITLE2=olto)
TTITLE3=Haydn Lo speziale Overture in G Dramma giocosa - 1 Presto
TTITLE4=Haydn Lo speziale Overture in G Dramma giocosa - 2 Andante
TTITLE5=Haydn Lo speziale Overture in G Dramma giocosa - 3 Presto
TTITLE6=Haydn Cello Concerto No 2 in D Hob VIIb 2 - 1 Allegro moderato
TTITLE6=(Cadenza Rostropovich)
TTITLE7=Haydn Cello Concerto No 2 in D Hob VIIb 2 - 2 Adagio(Cadenza G
TTITLE7=endron)
TTITLE8=Haydn Cello Concerto No 2 in D Hob VIIb 2 - 3 Rondo(Allegro)
EXTD=YEAR: 1998
EXTT0=
EXTT1=
EXTT2=
EXTT3=
EXTT4=
EXTT5=
EXTT6=
EXTT7=
EXTT8=
PLAYORDER=
